<?xml version="1.0" encoding="utf-8"?>
<!-- Generator: Adobe Illustrator 24.1.0, SVG Export Plug-In . SVG Version: 6.00 Build 0)  -->
<svg version="1.1" id="Layer_1" xmlns="http://www.w3.org/2000/svg" xmlns:xlink="http://www.w3.org/1999/xlink" x="0px" y="0px"
	 viewBox="0 0 24 24" style="enable-background:new 0 0 24 24;" xml:space="preserve">
<style type="text/css">
	.st0{fill:#000000;}
</style>
<path class="st0" d="M8,9H7V3h1V9z M21.5,14.8l-4.5,3V21h-1v-3.2l-3.5-2.3v1.3l-4.5,3V23H7v-3.2l-4.5-3V6h1v2.2l4,2.7l4-2.7V4h1v2.2
	l4,2.7l4-2.7V4h1V14.8z M20.5,7.4L17,9.8v2.8l3.5-2.3V7.4z M12.5,7.4v2.8l3.5,2.3V9.8L12.5,7.4z M11.5,9.4L8,11.8v2.8l3.5-2.3V9.4z
	 M3.5,9.4v2.8L7,14.6v-2.8L3.5,9.4z M7,18.6v-2.8l-3.5-2.3v2.8L7,18.6z M11.5,14.8v-1.3L8,15.8v2.8l3.5-2.3V14.8z M16,16.6v-2.8
	l-3.5-2.3v2.8L16,16.6z M20.5,14.2v-2.8L17,13.8v2.8L20.5,14.2z M17,1h-1v6h1V1z"/>
</svg>
