<svg width="380" height="460" xmlns="http://www.w3.org/2000/svg" xmlns:xlink="http://www.w3.org/1999/xlink" xml:space="preserve" overflow="hidden"><defs><clipPath id="clip0"><rect x="77" y="112" width="380" height="460"/></clipPath><clipPath id="clip1"><rect x="78" y="112" width="379" height="459"/></clipPath><clipPath id="clip2"><rect x="78" y="111" width="380" height="460"/></clipPath><clipPath id="clip3"><rect x="78" y="117" width="377" height="453"/></clipPath></defs><g clip-path="url(#clip0)" transform="translate(-77 -112)"><g clip-path="url(#clip1)"><g clip-path="url(#clip2)"><g clip-path="url(#clip3)"><path d="M256.512 257.191C257.925 260.84 262.026 262.653 265.674 261.243 267.427 260.563 268.84 259.217 269.599 257.498 270.358 255.782 270.403 253.83 269.726 252.077L261.981 232.067C260.713 228.796 260.575 225.196 261.592 221.835 262.605 218.478 264.71 215.555 267.573 213.529 272.829 209.836 276.747 204.542 278.743 198.437 280.739 192.333 280.706 185.746 278.65 179.664L269.839 153.249C268.411 149.821 264.579 148.079 261.057 149.257 257.54 150.434 255.525 154.128 256.441 157.724L265.207 184.209C266.287 187.413 266.302 190.879 265.252 194.086 264.198 197.297 262.138 200.082 259.372 202.026 253.947 205.872 249.959 211.416 248.037 217.782 246.116 224.149 246.373 230.975 248.766 237.181ZM445.039 269.087C445.648 272.458 448.583 274.911 452.007 274.911 452.44 274.929 452.878 274.911 453.308 274.851 457.139 274.137 459.674 270.458 458.975 266.623L455.166 245.52C454.538 242.07 455.083 238.511 456.713 235.405 458.343 232.299 460.964 229.828 464.16 228.385 470.018 225.753 474.87 221.297 477.987 215.682 481.105 210.064 482.32 203.589 481.449 197.227L477.808 169.609 477.812 169.609C477.202 165.822 473.692 163.206 469.89 163.71 466.089 164.211 463.378 167.65 463.775 171.463L467.416 199.081C467.846 202.412 467.195 205.795 465.558 208.726 463.92 211.66 461.386 213.989 458.324 215.368 452.246 218.112 447.262 222.808 444.168 228.714 441.069 234.616 440.033 241.386 441.229 247.943ZM352.88 243.028C354.289 246.676 358.386 248.493 362.035 247.087 365.687 245.678 367.504 241.581 366.094 237.929L358.416 217.903C357.149 214.636 357.01 211.039 358.02 207.682 359.033 204.325 361.137 201.402 363.997 199.379 369.253 195.686 373.171 190.393 375.167 184.288 377.163 178.183 377.13 171.6 375.074 165.514L366.192 139.089C364.958 135.377 360.947 133.37 357.235 134.603 353.523 135.841 351.515 139.852 352.753 143.564L361.575 170.046C362.655 173.249 362.67 176.715 361.62 179.926 360.566 183.137 358.506 185.922 355.74 187.866 350.304 191.709 346.304 197.26 344.383 203.637 342.462 210.014 342.723 216.848 345.134 223.057ZM205.063 335.755 194.738 316.933C193.045 313.86 192.431 310.309 192.988 306.847 193.549 303.386 195.25 300.208 197.826 297.827 202.547 293.472 205.732 287.712 206.906 281.397 208.084 275.084 207.183 268.56 204.342 262.799L192.132 237.847C190.42 234.325 186.177 232.86 182.656 234.576 179.138 236.288 177.673 240.531 179.385 244.048L191.608 269.087C193.096 272.119 193.567 275.547 192.947 278.867 192.326 282.186 190.648 285.214 188.166 287.502 183.28 292.025 180.046 298.055 178.981 304.63 177.915 311.206 179.082 317.95 182.289 323.785L192.614 342.592 192.614 342.596C193.492 344.285 195.014 345.549 196.834 346.106 198.659 346.659 200.625 346.457 202.296 345.542 203.967 344.626 205.201 343.078 205.716 341.246 206.229 339.411 205.986 337.448 205.032 335.796ZM508.888 385.324C494.526 337.946 458.482 300.223 411.802 283.73 365.122 267.234 313.385 273.933 272.445 301.768L271.48 302.336 271.48 302.332C261.424 308.822 252.362 316.732 244.572 325.816 244.135 326.339 243.735 326.99 243.313 327.528L243.309 327.528C206.719 368.626 194.592 426.012 211.426 478.407 228.259 530.795 271.544 570.376 325.231 582.461 327.123 583.414 329.216 583.9 331.336 583.877 331.534 583.877 331.803 583.792 332.016 583.792 370.976 591.055 411.237 583.096 444.501 561.561 477.771 540.021 501.509 506.545 510.832 468.026 511.067 467.552 511.247 467.054 511.37 466.538 511.456 466.041 511.497 465.619 511.583 465.122 515.736 447.597 516.652 429.458 514.289 411.601 513.523 402.7 511.71 393.919 508.891 385.441ZM439.491 314.511C436.818 322.915 432.568 330.735 426.972 337.553 420.729 345.236 413.07 351.643 404.408 356.432 404.509 355.838 404.621 355.228 404.707 354.675 406.778 345.7 406.456 336.339 403.772 327.524 402.531 323.79 400.991 320.164 399.167 316.676 396.318 311.562 394.464 305.955 393.702 300.149 393.432 298.081 393.122 295.659 393.051 294.1 396.479 294.242 407.638 296.437 439.477 314.511ZM319.245 557.108C318.722 560.084 318.225 563.071 317.986 565.96 280.573 554.495 249.602 528.017 232.458 492.844 215.315 457.671 213.539 416.958 227.554 380.427 228.081 386.393 229.516 392.244 231.804 397.776 236.182 408.075 243.647 416.763 253.176 422.632 253.624 422.882 254.099 423.08 254.592 423.226 278.017 430.138 291.754 438.807 293.287 447.727L293.287 447.731C293.542 452.314 292.229 456.852 289.56 460.591 284.843 467.858 282.996 476.62 284.375 485.177 286.716 494.242 292.783 501.891 301.074 506.238 306.954 509.737 311.982 514.504 315.792 520.185 321.653 531.591 322.89 544.816 319.246 557.108ZM332.486 569.571 331.963 569.485 331.963 569.489C332.094 566.154 332.505 562.838 333.197 559.575 337.484 543.879 335.544 527.135 327.787 512.836 322.965 505.468 316.565 499.266 309.048 494.679 302.506 490.189 299.317 487.797 298.214 482.444 297.553 477.072 298.932 471.648 302.08 467.244 306.304 460.807 308.117 453.083 307.209 445.435 304.629 430.452 289.011 418.863 259.453 410.026L259.449 410.026C252.978 405.668 247.898 399.537 244.822 392.367 238.227 373.377 241.805 352.334 254.309 336.593 262.021 327.89 270.769 320.159 280.354 313.58 284.182 310.941 288.365 308.862 292.776 307.404 308.001 303.659 324.087 307.838 335.564 318.522 344.061 326.338 354.513 341.183 350.942 349.467 347.884 356.648 333.634 359.082 321.074 361.235 306.02 363.814 290.424 366.476 287.65 379.108 286.02 386.487 289.986 392.166 295.014 399.377 301.388 408.05 309.728 415.085 319.347 419.915 323.313 422.165 327.406 424.505 327.548 426.061 327.548 426.345 327.548 426.528 326.289 428.128L326.285 428.128C323.279 431.358 321.833 435.739 322.319 440.124 323.664 450.037 332.984 453.72 345.884 458.931 351.279 461.099 357.698 463.674 365.017 467.203 382.721 475.7 392.818 481.988 395.509 490.444 396.743 494.324 394.092 498.941 391.472 503.288 372.669 535.456 342.105 568.128 332.486 569.571ZM359.835 572.277C357.966 572.277 356.153 572.064 354.31 571.993L354.314 571.993C373.719 553.628 390.481 532.656 404.122 509.677 409.131 502.922 410.918 494.302 409.012 486.111 404.354 471.423 389.184 463.053 371.185 454.385 363.551 450.703 356.822 447.985 351.186 445.716L351.182 445.72C345.862 444.082 340.842 441.596 336.311 438.355 336.648 437.802 337.025 437.275 337.448 436.782 340.453 433.511 341.99 429.148 341.694 424.715 340.887 415.777 333.523 411.586 326.398 407.534L326.398 407.538C318.619 403.736 311.856 398.136 306.671 391.206 303.838 387.198 301.232 383.415 301.531 382.099 302.268 378.772 315.568 376.436 323.527 375.131 339.657 372.369 357.941 369.24 364.034 354.964 371.215 338.112 355.537 317.518 345.182 308.015L345.179 308.015C338.255 301.787 330.031 297.189 321.101 294.546 339.934 288.987 359.755 287.615 379.171 290.524 378.764 294.37 378.902 298.258 379.582 302.064 380.543 309.421 382.853 316.539 386.393 323.055 387.892 325.888 389.156 328.842 390.176 331.881 392.143 338.505 392.318 345.529 390.685 352.247 389.735 357.488 388.434 364.639 394.793 368.845 396.853 370.19 399.272 370.886 401.731 370.841 414.718 370.841 431.473 354.299 437.791 346.651 443.619 339.548 448.228 331.526 451.432 322.913 462.25 332.15 471.626 342.953 479.244 354.964 467.079 351.622 459.6 352.587 455.166 357.895 449.899 364.269 453.323 371.476 456.583 378.445L456.586 378.448C460.485 385.573 462.758 393.48 463.24 401.588 462.837 412.38 459.667 422.885 454.037 432.096 450.396 439.079 446.643 446.261 452.706 451.401 458.242 456.058 464.534 452.122 469.558 448.952 473.991 446.118 479.471 442.705 483.722 443.726 486.627 444.421 492.107 448.287 496.865 465.184L496.865 465.18C489.168 495.717 471.521 522.823 446.706 542.218 421.895 561.612 391.331 572.187 359.837 572.281ZM500.589 439.15C497.326 434.627 492.589 431.386 487.191 429.988 485.595 429.607 483.958 429.416 482.32 429.42 477.965 429.539 473.696 430.639 469.827 432.635 474.87 422.967 477.528 412.236 477.573 401.335 477.094 391.219 474.354 381.335 469.558 372.415 468.78 370.774 467.786 368.703 467.221 367.204L467.221 367.2C473.476 367.683 479.595 369.275 485.292 371.903 489.845 376.961 493.258 382.934 495.307 389.425 497.554 396.92 499.176 404.591 500.148 412.355 501.072 421.256 501.217 430.224 500.589 439.151ZM552.286 268.022 548.645 240.404C548.035 236.617 544.525 234 540.723 234.505 536.922 235.006 534.211 238.445 534.608 242.258L538.249 269.876C538.705 273.225 538.062 276.634 536.421 279.591 534.78 282.544 532.226 284.892 529.142 286.275 523.068 289.019 518.08 293.714 514.986 299.62 511.887 305.523 510.851 312.293 512.047 318.85L515.857 339.953C516.466 343.324 519.4 345.773 522.825 345.773 523.262 345.78 523.699 345.747 524.129 345.676 527.961 344.958 530.492 341.28 529.793 337.448L525.984 316.345 525.984 316.342C525.355 312.891 525.901 309.332 527.531 306.226 529.161 303.123 531.782 300.649 534.978 299.206 540.847 296.578 545.706 292.114 548.828 286.488 551.95 280.862 553.161 274.381 552.286 268.007Z" fill="#000000" fill-rule="nonzero" fill-opacity="1" transform="matrix(1 0 0 1.00057 -99.1219 -16.8921)"/></g></g></g></g></svg>