<svg width="184" height="165" xmlns="http://www.w3.org/2000/svg" xmlns:xlink="http://www.w3.org/1999/xlink" xml:space="preserve" overflow="hidden"><defs><clipPath id="clip0"><rect x="456" y="116" width="184" height="165"/></clipPath><clipPath id="clip1"><rect x="457" y="117" width="183" height="164"/></clipPath><clipPath id="clip2"><rect x="457" y="117" width="183" height="164"/></clipPath></defs><g clip-path="url(#clip0)" transform="translate(-456 -116)"><g clip-path="url(#clip1)"><g clip-path="url(#clip2)"><path d="M110.85 120.766C94.262 138.185 94.2772 166.213 110.85 183.652L184.259 260.914C208.759 235.189 233.257 209.465 257.757 183.735 274.345 166.316 274.345 138.271 257.757 120.849 241.17 103.431 214.461 103.431 197.872 120.849L184.346 135.052 170.735 120.76C154.148 103.341 127.439 103.341 110.85 120.76Z" fill="#E89E53" fill-rule="nonzero" fill-opacity="1" transform="matrix(1 0 0 1.00015 362.829 11.5488)"/></g></g></g></svg>