<?xml version="1.0" encoding="utf-8"?>
<!-- Generator: Adobe Illustrator 24.1.0, SVG Export Plug-In . SVG Version: 6.00 Build 0)  -->
<svg version="1.1" id="Layer_1" xmlns="http://www.w3.org/2000/svg" xmlns:xlink="http://www.w3.org/1999/xlink" x="0px" y="0px"
	 viewBox="0 0 24 24" style="enable-background:new 0 0 24 24;" xml:space="preserve">
<style type="text/css">
	.st0{fill:#000000;}
</style>
<path class="st0" d="M18,14l-2.7,1.2v1.1l2.7-1.2l4,1.8V22h-8V0.9L1,3.1V23h22v-6.8L18,14z M2,22V3.9l11-1.8V22H2z M10,6h1v2h-1V6z
	 M7,6h1v2H7V6z M4,6h1v2H4V6z M10,10h1v2h-1V10z M7,10h1v2H7V10z M4,10h1v2H4V10z M10,14h1v2h-1V14z M7,14h1v2H7V14z M4,14h1v2H4V14
	z M10,18h1v2h-1V18z M7,18h1v2H7V18z M4,18h1v2H4V18z"/>
</svg>
