<?xml version="1.0" encoding="UTF-8"?>
<svg width="752pt" height="752pt" version="1.1" viewBox="0 0 752 752" xmlns="http://www.w3.org/2000/svg">
 <path d="m377.31 166.22c-112.89 0-204.41 91.516-204.41 204.41s91.516 204.41 204.41 204.41 204.41-91.516 204.41-204.41-91.52-204.41-204.41-204.41zm16.137 314.16v36.586h-35.152v-34.086c-24.031-1.0703-47.344-7.5234-60.973-15.418l10.758-41.969c15.07 8.2539 36.23 15.781 59.543 15.781 20.445 0 34.434-7.8867 34.434-22.238 0-13.629-11.477-22.234-38.02-31.199-38.379-12.914-64.562-30.852-64.562-65.645 0-31.562 22.238-56.309 60.617-63.848v-34.07h35.148v31.562c24.035 1.0781 40.176 6.0977 52.016 11.84l-10.406 40.527c-9.3281-3.9453-25.824-12.191-51.648-12.191-23.316 0-30.852 10.039-30.852 20.078 0 11.844 12.555 19.367 43.043 30.852 42.688 15.062 59.902 34.785 59.902 67.07 0 31.93-22.602 59.191-63.848 66.367z" fill="#39b288"/>
</svg>
